<svg width="20" height="20" viewBox="0 0 20 20" fill="none" xmlns="http://www.w3.org/2000/svg">
<path d="M19.6733 17.5533C19.0305 16.9802 18.4676 16.3232 18 15.6C17.489 14.6019 17.183 13.5116 17.1 12.3933V9.09999C17.1044 7.34373 16.4673 5.6463 15.3085 4.32663C14.1496 3.00697 12.5488 2.15589 10.8067 1.93332V1.07332C10.8067 0.837276 10.7129 0.610902 10.546 0.443994C10.3791 0.277087 10.1527 0.183319 9.91666 0.183319C9.68062 0.183319 9.45424 0.277087 9.28733 0.443994C9.12043 0.610902 9.02666 0.837276 9.02666 1.07332V1.94665C7.30016 2.18527 5.71864 3.04149 4.57501 4.35672C3.43138 5.67196 2.80315 7.35708 2.80666 9.09999V12.3933C2.7237 13.5116 2.41768 14.6019 1.90666 15.6C1.44725 16.3216 0.893455 16.9785 0.259992 17.5533C0.18888 17.6158 0.131886 17.6927 0.0928035 17.7789C0.0537209 17.8651 0.0334451 17.9587 0.0333252 18.0533V18.96C0.0333252 19.1368 0.103563 19.3064 0.228587 19.4314C0.353612 19.5564 0.523181 19.6267 0.699992 19.6267H19.2333C19.4101 19.6267 19.5797 19.5564 19.7047 19.4314C19.8298 19.3064 19.9 19.1368 19.9 18.96V18.0533C19.8999 17.9587 19.8796 17.8651 19.8405 17.7789C19.8014 17.6927 19.7444 17.6158 19.6733 17.5533ZM1.41999 18.2933C2.04012 17.694 2.58623 17.0225 3.04666 16.2933C3.69052 15.088 4.06578 13.7575 4.14666 12.3933V9.09999C4.12022 8.31868 4.25127 7.54004 4.53202 6.81043C4.81277 6.08082 5.23747 5.41518 5.78082 4.85312C6.32418 4.29106 6.97509 3.8441 7.69478 3.53884C8.41447 3.23357 9.18824 3.07626 9.96999 3.07626C10.7517 3.07626 11.5255 3.23357 12.2452 3.53884C12.9649 3.8441 13.6158 4.29106 14.1592 4.85312C14.7025 5.41518 15.1272 6.08082 15.408 6.81043C15.6887 7.54004 15.8198 8.31868 15.7933 9.09999V12.3933C15.8742 13.7575 16.2495 15.088 16.8933 16.2933C17.3538 17.0225 17.8999 17.694 18.52 18.2933H1.41999Z" fill="#1B281B"/>
</svg>
